<?xml version="1.0" standalone="no"?>
<!DOCTYPE svg PUBLIC "-//W3C//DTD SVG 20010904//EN"
 "http://www.w3.org/TR/2001/REC-SVG-20010904/DTD/svg10.dtd">
<svg version="1.0" xmlns="http://www.w3.org/2000/svg"
 width="260.000000pt" height="260.000000pt" viewBox="0 0 260.000000 260.000000"
 preserveAspectRatio="xMidYMid meet">
<metadata>
Created by potrace 1.11, written by Peter Selinger 2001-2013
</metadata>
<g transform="translate(0.000000,260.000000) scale(0.100000,-0.100000)"
fill="#000000" stroke="none">
<path d="M1333 2287 c-22 -13 -63 -59 -63 -74 -1 -20 -31 -45 -62 -49 -18 -3
-62 -12 -98 -20 -36 -9 -73 -17 -82 -19 -30 -6 -138 -59 -138 -67 0 -4 -6 -8
-14 -8 -8 0 -21 -6 -28 -12 -7 -7 -42 -35 -78 -62 -36 -27 -83 -71 -105 -98
-22 -27 -46 -56 -52 -63 -7 -7 -13 -18 -13 -24 0 -6 -4 -11 -10 -11 -5 0 -25
-29 -45 -64 -153 -273 -144 -609 22 -878 13 -21 23 -45 23 -54 0 -9 -29 -77
-65 -150 -36 -74 -65 -140 -65 -148 0 -21 85 -59 139 -61 25 -1 71 -5 101 -9
66 -8 75 -2 119 77 18 31 35 57 38 57 3 0 19 -6 36 -14 185 -85 352 -118 482
-95 22 4 59 9 81 13 168 22 303 92 450 232 114 110 209 267 230 383 3 14 7 28
10 33 12 19 17 60 19 175 6 246 -68 440 -236 620 -75 80 -149 132 -281 200
-16 8 -29 18 -29 21 -1 4 -2 28 -4 54 -5 95 -14 106 -94 114 -107 11 -168 11
-188 1z m-226 -395 c9 -6 8 -15 -2 -37 -8 -17 -46 -97 -85 -180 -40 -82 -87
-181 -105 -220 -18 -38 -52 -110 -76 -160 -23 -49 -43 -92 -44 -95 0 -3 -7
-16 -15 -30 -8 -14 -15 -27 -15 -30 -7 -28 -27 -60 -38 -60 -45 0 -74 238 -43
360 47 187 160 330 338 426 70 37 68 37 85 26z m638 -154 c89 -83 161 -216
181 -335 9 -48 8 -178 -1 -218 -3 -16 -8 -40 -11 -52 -18 -89 -84 -202 -164
-283 -67 -67 -196 -145 -259 -156 -14 -3 -41 -9 -59 -14 -54 -14 -209 -8 -281
11 -36 10 -94 32 -129 49 -56 27 -62 33 -56 53 13 43 86 192 97 199 13 8 213
5 222 -4 3 -3 7 -35 9 -72 1 -37 7 -71 12 -76 38 -38 263 -31 279 8 8 18 13
209 18 683 2 151 7 281 11 287 11 18 56 -9 131 -80z m-441 -246 c4 -7 9 -196
7 -244 -1 -13 -13 -16 -66 -17 -63 0 -72 4 -65 34 1 6 3 15 4 20 4 20 101 215
108 215 4 0 9 -4 12 -8z"/>
</g>
</svg>
